<svg xmlns="http://www.w3.org/2000/svg" viewBox="0 0 3000 2000"><path d="M1135.054,1835.047c-421.563-4.863-776.661-339.25-807.976-775.759C294.1,599.65,632.621,200.837,1083.177,168.514S1925.712,482.6,1958.686,942.237c31.608,440.6-278.132,825.3-700.7,884.891" fill="none" stroke="#231f20" stroke-miterlimit="10" stroke-width="6"/><path d="M1161.641,1787.881c-397.788,8.61-743.2-295.682-786.4-706.434-45.491-432.516,261.327-819.289,685.3-863.881s804.544,269.883,850.035,702.4c43.606,414.6-236.51,787.163-633.225,856.6" fill="none" stroke="#231f20" stroke-miterlimit="10" stroke-width="6"/><path d="M1205.361,1744.3c-368.27,30.238-705.492-232.515-768.523-610.867-66.371-398.4,196.411-774.107,586.938-839.166s760.917,205.166,827.288,603.566c63.621,381.9-175.2,742.938-539.074,829.5" fill="none" stroke="#231f20" stroke-miterlimit="10" stroke-width="6"/><path d="M1226.659,1693.137C883.183,1733.676,559,1499.116,487.449,1147.3c-75.34-370.458,157.966-730.643,521.1-804.495s718.6,166.6,793.936,537.053c72.22,355.111-139.164,700.782-476.652,793.862" fill="none" stroke="#231f20" stroke-miterlimit="10" stroke-width="6"/><path d="M1243.89,1628.9c-311.578,49.308-615.474-152.8-693.344-470.862-82-334.916,117.671-671.577,445.97-751.953s660.908,125.97,742.905,460.886c78.6,321.041-101.612,643.686-405.841,740.663" fill="none" stroke="#231f20" stroke-miterlimit="10" stroke-width="6"/><path d="M1259,1564.8c-280.755,57.005-564.439-114.4-647.614-399.918-87.582-300.643,80.323-613.958,375.026-699.809S1591.02,553.344,1678.6,853.987c83.954,288.188-66.849,588.02-339.061,687.985" fill="none" stroke="#231f20" stroke-miterlimit="10" stroke-width="6"/><path d="M1276.153,1491.444c-244.759,65.743-504.642-70.027-593.753-317.552C588.569,913.251,719.619,627.4,975.11,535.42s538.673,44.75,632.505,305.391c89.944,249.843-26.747,522.853-261.6,626.058" fill="none" stroke="#231f20" stroke-miterlimit="10" stroke-width="6"/><path d="M1283.405,1436.867c-217.22,69.464-456.574-41.563-547.16-260.28-95.385-230.3,10.3-492.8,236.055-586.3s486.09,17.4,581.476,247.706c91.434,220.765-1.888,471.108-208.62,573.827" fill="none" stroke="#231f20" stroke-miterlimit="10" stroke-width="6"/><path d="M1283.971,1377.551c-188.291,69.815-403.29-18.251-491.745-207.012-93.142-198.762-10.7-433.9,184.132-525.206s428.287-4.187,521.428,194.575c89.283,190.528,17.232,414.485-160.5,513.132" fill="none" stroke="#231f20" stroke-miterlimit="10" stroke-width="6"/><path d="M1278.249,1329.1c-164.337,66.981-356.721-4.733-440.179-168.958-87.879-172.927-21.705-382.944,147.8-469.087s378.166-15.791,466.045,157.135c84.239,165.763,26.924,365.607-127.273,457.755" fill="none" stroke="#231f20" stroke-miterlimit="10" stroke-width="6"/><path d="M1255.433,1278.161c-139.1,55.521-301.026-6.181-370.454-145.29-73.106-146.481-15.971-323.32,127.615-394.981s319.25-11.01,392.356,135.471c70.078,140.412,20.482,308.719-110.217,385.542" fill="none" stroke="#231f20" stroke-miterlimit="10" stroke-width="6"/><path d="M1241.346,1239.608c-120.131,47.949-259.971-5.337-319.93-125.475-63.136-126.5-13.793-279.224,110.211-341.112s275.71-9.508,338.845,117c60.52,121.262,17.688,266.615-95.186,332.961" fill="none" stroke="#231f20" stroke-miterlimit="10" stroke-width="6"/><path d="M1217.985,1206.312c-101.784,35.7-216.4-13.652-262.1-115.867-48.121-107.63-1.6-233.121,103.9-280.291S1289.823,812,1337.944,919.626c46.128,103.171,5.3,222.754-91.093,274.032" fill="none" stroke="#231f20" stroke-miterlimit="10" stroke-width="6"/><path d="M1204.152,1167.149c-82,28.757-174.343-11-211.161-93.347C954.223,987.091,991.7,885.99,1076.7,847.988s185.331,1.483,224.1,88.195c37.163,83.119,4.267,179.459-73.388,220.771" fill="none" stroke="#231f20" stroke-miterlimit="10" stroke-width="6"/><path d="M1178.121,1139.817c-68.682,15.648-139.414-24.834-161.522-94.534-23.279-73.392,16.169-151.387,88.111-174.207s149.135,18.178,172.415,91.57c22.315,70.352-13.009,144.933-79.34,171.091" fill="none" stroke="#231f20" stroke-miterlimit="10" stroke-width="6"/><path d="M301.751,945.166,64.089,620.449V941.427a8.545,8.545,0,1,1-17.09,0v-338.6c0-5.875,4.806-11.216,10.681-11.216a11.08,11.08,0,0,1,9.079,4.807L304.421,917.928V600.154a8.545,8.545,0,1,1,17.09,0v338.6c0,5.875-4.807,11.216-10.681,11.216A11.086,11.086,0,0,1,301.751,945.166Z" fill="#231f20" stroke="#231f20" stroke-miterlimit="10" stroke-width="12"/><path d="M415.5,939.291v-337c0-5.875,3.738-9.614,9.613-9.614H626.459a8.011,8.011,0,1,1,0,16.022H432.59V757.706H622.721a8.011,8.011,0,0,1,0,16.022H432.59V932.882H626.459a8.011,8.011,0,1,1,0,16.022H425.113C419.238,948.9,415.5,945.166,415.5,939.291Z" fill="#231f20" stroke="#231f20" stroke-miterlimit="10" stroke-width="12"/><path d="M713.51,941.427V602.291c0-5.875,3.739-9.614,9.614-9.614H924.469a8.011,8.011,0,0,1,0,16.022H730.6V757.706h190.13a8.011,8.011,0,1,1,0,16.022H730.6v167.7a8.546,8.546,0,0,1-17.091,0Z" fill="#231f20" stroke="#231f20" stroke-miterlimit="10" stroke-width="12"/><path d="M953.835,952.642a16.549,16.549,0,0,1,1.068-4.272l121.235-362.1c1.068-2.671,4.273-5.341,7.477-5.341,4.807,0,8.011,4.272,8.011,8.545l-1.068,3.738-121.234,362.1c-1.069,2.67-4.273,5.34-7.477,5.34A8.2,8.2,0,0,1,953.835,952.642Z" fill="#231f20" stroke="#231f20" stroke-miterlimit="10" stroke-width="12"/><path d="M1141.289,952.642v-363.7a8.011,8.011,0,1,1,16.022,0v363.7a8.011,8.011,0,0,1-16.022,0Z" fill="#231f20" stroke="#231f20" stroke-miterlimit="10" stroke-width="12"/><path d="M1477.217,935.552c1.068,1.068,1.6,3.2,1.6,5.341,0,4.806-3.738,9.079-8.545,9.079-3.2,0-5.875-1.068-7.477-3.739L1357.05,795.091H1268.4V941.427a8.546,8.546,0,0,1-17.091,0V602.291c0-5.875,3.738-9.614,9.613-9.614h113.224c57.68,0,105.212,35.783,105.212,100.94,0,64.089-46.464,100.405-102.542,101.474ZM1268.4,779.069h105.746c52.339,0,86.52-36.318,86.52-85.452s-34.181-84.918-86.52-84.918H1268.4Z" fill="#231f20" stroke="#231f20" stroke-miterlimit="10" stroke-width="12"/><path d="M1560.527,941.427V600.154a8.546,8.546,0,1,1,17.091,0V941.427a8.546,8.546,0,0,1-17.091,0Z" fill="#231f20" stroke="#231f20" stroke-miterlimit="10" stroke-width="12"/><path d="M1828.628,586.8c103.076,0,169.3,81.179,169.3,184.256s-66.225,184.255-169.3,184.255c-103.61,0-169.3-81.179-169.3-184.255S1725.018,586.8,1828.628,586.8Zm0,16.023c-92.4,0-150.609,70.5-150.609,168.233,0,96.667,58.213,168.233,150.609,168.233,91.326,0,150.608-71.566,150.608-168.233C1979.236,673.322,1919.954,602.825,1828.628,602.825Z" fill="#231f20" stroke="#231f20" stroke-miterlimit="10" stroke-width="12"/><path d="M2079.635,600.154a8.546,8.546,0,1,1,17.091,0V813.783c0,79.043,40.589,125.508,115.359,125.508s115.36-46.465,115.36-125.508V600.154a8.545,8.545,0,1,1,17.09,0V813.783c0,88.122-45.93,141.53-132.45,141.53s-132.45-53.942-132.45-141.53Z" fill="#231f20" stroke="#231f20" stroke-miterlimit="10" stroke-width="12"/><path d="M2423.041,899.235c0-5.34,4.272-9.613,9.079-9.613a8.613,8.613,0,0,1,6.943,3.2c22.965,24.568,58.213,46.465,105.212,46.465,82.247,0,103.077-47,103.077-80.645,0-57.68-51.806-73.168-104.679-88.123-55.01-15.488-111.621-30.976-111.621-92.928,0-57.68,52.873-90.793,111.621-90.793,48.6,0,84.384,16.556,110.019,44.328a8.577,8.577,0,0,1,2.67,5.875,9.358,9.358,0,0,1-9.079,9.079,8.608,8.608,0,0,1-6.943-3.2c-25.1-28.306-58.748-40.055-96.667-40.055-51.8,0-92.929,30.976-92.929,74.77,0,48.066,48.067,61.418,98.8,75.838,57.145,16.556,117.5,34.715,117.5,105.213,0,40.055-25.636,96.667-121.769,96.667-51.271,0-92.394-20.829-119.1-50.2A8.029,8.029,0,0,1,2423.041,899.235Z" fill="#231f20" stroke="#231f20" stroke-miterlimit="10" stroke-width="12"/><path d="M296.943,1414.079V1072.806a8.546,8.546,0,0,1,17.091,0v341.273a8.546,8.546,0,0,1-17.091,0Z" fill="#231f20" stroke="#231f20" stroke-miterlimit="10" stroke-width="12"/><path d="M662.778,1417.817,425.116,1093.1v320.978a8.545,8.545,0,1,1-17.09,0v-338.6c0-5.875,4.807-11.216,10.681-11.216a11.083,11.083,0,0,1,9.08,4.806l237.662,321.512V1072.806a8.545,8.545,0,1,1,17.09,0v338.6c0,5.875-4.807,11.216-10.681,11.216A11.084,11.084,0,0,1,662.778,1417.817Z" fill="#231f20" stroke="#231f20" stroke-miterlimit="10" stroke-width="12"/><path d="M776.527,1411.942v-337c0-5.875,3.739-9.613,9.614-9.613h96.132c110.554,0,177.313,83.316,177.313,178.38,0,96.134-66.759,177.847-177.313,177.847H786.141C780.266,1421.556,776.527,1417.817,776.527,1411.942Zm105.746-6.409c100.94,0,158.621-71.565,158.621-161.824,0-89.189-57.681-162.357-158.621-162.357H793.618v324.181Z" fill="#231f20" stroke="#231f20" stroke-miterlimit="10" stroke-width="12"/><path d="M1141.826,1425.294v-363.7a8.011,8.011,0,1,1,16.022,0v363.7a8.011,8.011,0,1,1-16.022,0Z" fill="#231f20" stroke="#231f20" stroke-miterlimit="10" stroke-width="12"/><path d="M1207.513,1425.294a16.523,16.523,0,0,1,1.068-4.273l121.235-362.1c1.068-2.67,4.272-5.341,7.477-5.341,4.807,0,8.011,4.274,8.011,8.546l-1.068,3.738L1223,1427.965c-1.068,2.67-4.272,5.341-7.477,5.341A8.2,8.2,0,0,1,1207.513,1425.294Z" fill="#231f20" stroke="#231f20" stroke-miterlimit="10" stroke-width="12"/><path d="M1379.479,1371.887c0-5.341,4.272-9.614,9.079-9.614a8.615,8.615,0,0,1,6.943,3.205c22.965,24.567,58.214,46.464,105.212,46.464,82.247,0,103.076-47,103.076-80.645,0-57.68-51.806-73.168-104.678-88.121-55.009-15.488-111.621-30.977-111.621-92.929,0-57.681,52.873-90.793,111.621-90.793,48.6,0,84.383,16.557,110.019,44.328a8.584,8.584,0,0,1,2.67,5.875,9.359,9.359,0,0,1-9.079,9.079,8.613,8.613,0,0,1-6.943-3.2c-25.1-28.306-58.748-40.055-96.667-40.055-51.805,0-92.929,30.976-92.929,74.77,0,48.066,48.067,61.418,98.8,75.838,57.146,16.557,117.5,34.715,117.5,105.212,0,40.056-25.635,96.668-121.768,96.668-51.271,0-92.395-20.829-119.1-50.2A8.034,8.034,0,0,1,1379.479,1371.887Z" fill="#231f20" stroke="#231f20" stroke-miterlimit="10" stroke-width="12"/><path d="M1795.518,1414.079V1081.352H1682.294a8.011,8.011,0,0,1,0-16.022h244.072a8.012,8.012,0,0,1,0,16.023H1812.608v332.727a8.545,8.545,0,1,1-17.09,0Z" fill="#231f20" stroke="#231f20" stroke-miterlimit="10" stroke-width="12"/><path d="M2226.508,1408.2c1.068,1.068,1.6,3.2,1.6,5.341,0,4.807-3.738,9.079-8.545,9.079-3.2,0-5.875-1.068-7.477-3.738l-105.746-151.143h-88.656v146.336a8.546,8.546,0,0,1-17.091,0V1074.942c0-5.875,3.739-9.613,9.613-9.613h113.224c57.679,0,105.213,35.783,105.213,100.94,0,64.088-46.465,100.406-102.542,101.474Zm-208.822-156.483h105.746c52.339,0,86.52-36.318,86.52-85.452s-34.181-84.917-86.52-84.917H2017.686Z" fill="#231f20" stroke="#231f20" stroke-miterlimit="10" stroke-width="12"/><path d="M2309.818,1414.079V1072.806a8.546,8.546,0,0,1,17.091,0v341.273a8.546,8.546,0,0,1-17.091,0Z" fill="#231f20" stroke="#231f20" stroke-miterlimit="10" stroke-width="12"/><path d="M2420.9,1411.942v-337c0-5.875,3.74-9.613,9.614-9.613H2631.86a8.012,8.012,0,1,1,0,16.023H2437.992v149h190.13a8.012,8.012,0,1,1,0,16.023h-190.13v159.153H2631.86a8.012,8.012,0,1,1,0,16.023H2430.515C2424.641,1421.556,2420.9,1417.817,2420.9,1411.942Z" fill="#231f20" stroke="#231f20" stroke-miterlimit="10" stroke-width="12"/><path d="M2703.424,1371.887c0-5.341,4.272-9.614,9.079-9.614a8.61,8.61,0,0,1,6.942,3.205c22.966,24.567,58.214,46.464,105.213,46.464,82.247,0,103.076-47,103.076-80.645,0-57.68-51.8-73.168-104.678-88.121-55.01-15.488-111.621-30.977-111.621-92.929,0-57.681,52.873-90.793,111.621-90.793,48.6,0,84.383,16.557,110.019,44.328a8.579,8.579,0,0,1,2.67,5.875,9.358,9.358,0,0,1-9.079,9.079,8.611,8.611,0,0,1-6.943-3.2c-25.1-28.306-58.748-40.055-96.667-40.055-51.8,0-92.929,30.976-92.929,74.77,0,48.066,48.066,61.418,98.8,75.838,57.145,16.557,117.5,34.715,117.5,105.212,0,40.056-25.636,96.668-121.769,96.668-51.271,0-92.394-20.829-119.1-50.2A8.03,8.03,0,0,1,2703.424,1371.887Z" fill="#231f20" stroke="#231f20" stroke-miterlimit="10" stroke-width="12"/><path d="M1141.308,1136.9v-363.7a8.011,8.011,0,0,1,16.022,0v363.7a8.011,8.011,0,1,1-16.022,0Z" fill="#231f20" stroke="#231f20" stroke-miterlimit="10" stroke-width="12"/></svg>